<?xml version="1.0" encoding="utf-8"?>
<!-- Svg Vector Icons : http://www.onlinewebfonts.com/icon -->
<!DOCTYPE svg PUBLIC "-//W3C//DTD SVG 1.1//EN" "http://www.w3.org/Graphics/SVG/1.1/DTD/svg11.dtd">
<svg version="1.1" xmlns="http://www.w3.org/2000/svg" xmlns:xlink="http://www.w3.org/1999/xlink" x="0px" y="0px" viewBox="0 0 1000 1000" enable-background="new 0 0 1000 1000" xml:space="preserve">
<metadata> Svg Vector Icons : http://www.onlinewebfonts.com/icon </metadata>
<g><g transform="translate(0.000000,511.000000) scale(0.100000,-0.100000)"><path d="M4491.2,2638.3c-908.2-101.8-1912.4-516.5-2866.6-1180.8C1159.9,1133,620.3,670.2,284.3,309.3L100,107.7L284.3-94C388-203.4,578.1-389.6,706.7-506.8c1169.3-1054.1,2409.7-1703.1,3625.1-1895.1c303.4-48,1031.1-48,1330.6,0C6518.8-2267.5,7361.7-1918,8225.7-1342C8755.6-986.8,9341.2-497.2,9711.8-97.8L9900,107.7l-184.3,201.6c-336,361-875.5,823.7-1340.2,1148.2c-956.2,666.3-1902.8,1058-2837.8,1175.1C5278.4,2663.3,4744.6,2667.1,4491.2,2638.3z M5387.9,2102.6c232.3-25,374.4-67.2,572.2-174.7c518.4-276.5,881.3-737.3,1040.7-1321c38.4-142.1,44.2-207.4,44.2-499.2c0-307.2-3.8-351.4-51.8-524.2C6895.1-766,6733.8-1054,6490-1307.4c-220.8-232.3-524.2-433.9-789.1-520.3c-314.9-103.7-1086.8-103.7-1401.6,0c-397.5,130.6-831.4,487.7-1061.8,871.7c-201.6,339.8-291.9,664.3-291.9,1063.7c0,399.4,88.3,720,293.8,1065.6c230.4,393.6,741.1,796.8,1127.1,892.8C4592.9,2119.9,5059.5,2137.2,5387.9,2102.6z M2897.5,1480.5c-172.8-257.3-301.5-574.1-368.7-908.2c-46.1-232.3-46.1-721.9,1.9-942.8c73-337.9,199.7-649,362.9-892.8c49.9-73,90.2-136.3,90.2-140.2c0-15.4-432,218.9-647.1,351.4c-272.6,165.1-566.4,372.5-839.1,591.4C1271.2-278.3,852.7,90.4,852.7,107.7c0,13.4,382.1,357.1,547.2,493.5c288,236.2,714.3,537.6,1017.6,720c149.8,90.2,554.9,303.4,560.7,295.7C2982,1613,2945.5,1553.5,2897.5,1480.5z M7601.7,1303.9c316.8-190.1,614.4-399.4,925.5-649c274.6-218.9,610.6-522.3,610.6-547.2c0-25-337.9-328.3-614.4-551.1c-295.7-238.1-620.2-466.6-917.8-645.1c-215-128.7-589.5-330.3-589.5-314.9c0,3.8,38.4,67.2,86.4,138.3c167.1,247.7,295.7,560.7,366.7,894.8c49.9,226.6,49.9,729.6,0,956.2c-73,339.9-197.8,643.2-366.7,894.8c-48,71-86.4,132.5-86.4,136.3C7016.1,1634.1,7367.4,1445.9,7601.7,1303.9z"/><path d="M4725.4,1230.9c-409-103.7-752.7-455.1-850.6-865.9c-40.3-176.6-28.8-451.2,30.7-622.1c115.2-339.9,389.8-614.4,729.6-729.6c170.9-59.5,445.5-71,622.1-30.7c420.5,99.8,768,447.4,867.9,867.9c40.3,176.6,28.8,451.2-30.7,622.1c-115.2,339.9-387.9,614.4-729.6,731.5C5203.5,1257.8,4888.6,1271.2,4725.4,1230.9z"/></g></g>
</svg>